REM DIRINDEX 1\2\6,1\2\7,1\2\8,1\2\9,1\3\10,1\3\11,1\4\12,1\4\13,1\4\14,1\5\15,1\5\16,1\5\17
REM DIRNAME cjc029,folder01,folder02,folder03,folder04,folder05,folder06,folder07,folder08,folder09,folder10,folder11,folder12,folder13,folder14,folder15,folder16
TITLE ""
FILE "1400_3_sec12_1133_1149.mp3" MP3
  TRACK 01 AUDIO
    TITLE "0:"
    INDEX 01 00:00:00
  TRACK 02 AUDIO
    TITLE "17:cjc029_6705"
    INDEX 01 00:00:15
  TRACK 03 AUDIO
    TITLE "0:"
    INDEX 01 00:02:55
  TRACK 04 AUDIO
    TITLE "16:cjc029_6706"
    INDEX 01 00:02:59
  TRACK 05 AUDIO
    TITLE "0:"
    INDEX 01 00:04:05
  TRACK 06 AUDIO
    TITLE "17:cjc029_6707"
    INDEX 01 00:04:62
  TRACK 07 AUDIO
    TITLE "0:"
    INDEX 01 00:06:14
  TRACK 08 AUDIO
    TITLE "16:cjc029_6708"
    INDEX 01 00:06:22
  TRACK 09 AUDIO
    TITLE "0:"
    INDEX 01 00:07:49
  TRACK 10 AUDIO
    TITLE "17:cjc029_6709"
    INDEX 01 00:08:34
  TRACK 11 AUDIO
    TITLE "0:"
    INDEX 01 00:09:73
  TRACK 12 AUDIO
    TITLE "16:cjc029_6710"
    INDEX 01 00:10:08
  TRACK 13 AUDIO
    TITLE "0:"
    INDEX 01 00:11:23
  TRACK 14 AUDIO
    TITLE "17:cjc029_6711"
    INDEX 01 00:12:11
  TRACK 15 AUDIO
    TITLE "0:"
    INDEX 01 00:13:45
  TRACK 16 AUDIO
    TITLE "16:cjc029_6712"
    INDEX 01 00:13:49
  TRACK 17 AUDIO
    TITLE "0:"
    INDEX 01 00:14:74
  TRACK 18 AUDIO
    TITLE "17:cjc029_6713"
    INDEX 01 00:15:62
  TRACK 19 AUDIO
    TITLE "0:"
    INDEX 01 00:18:03
  TRACK 20 AUDIO
    TITLE "16:cjc029_6714"
    INDEX 01 00:18:09
  TRACK 21 AUDIO
    TITLE "0:"
    INDEX 01 00:19:44
  TRACK 22 AUDIO
    TITLE "17:cjc029_6715"
    INDEX 01 00:20:16
  TRACK 23 AUDIO
    TITLE "0:"
    INDEX 01 00:22:01
  TRACK 24 AUDIO
    TITLE "16:cjc029_6716"
    INDEX 01 00:22:07
  TRACK 25 AUDIO
    TITLE "0:"
    INDEX 01 00:23:34
  TRACK 26 AUDIO
    TITLE "17:cjc029_6717"
    INDEX 01 00:24:18
  TRACK 27 AUDIO
    TITLE "0:"
    INDEX 01 00:25:46
  TRACK 28 AUDIO
    TITLE "16:cjc029_6718"
    INDEX 01 00:25:56
  TRACK 29 AUDIO
    TITLE "0:"
    INDEX 01 00:26:66
  TRACK 30 AUDIO
    TITLE "17:cjc029_6719"
    INDEX 01 00:27:51
  TRACK 31 AUDIO
    TITLE "0:"
    INDEX 01 00:28:74
  TRACK 32 AUDIO
    TITLE "16:cjc029_6720"
    INDEX 01 00:29:05
  TRACK 33 AUDIO
    TITLE "0:"
    INDEX 01 00:30:20
  TRACK 34 AUDIO
    TITLE "17:cjc029_6721"
    INDEX 01 00:31:12
  TRACK 35 AUDIO
    TITLE "0:"
    INDEX 01 00:33:36
  TRACK 36 AUDIO
    TITLE "16:cjc029_6722"
    INDEX 01 00:33:42
  TRACK 37 AUDIO
    TITLE "0:"
    INDEX 01 00:34:71
  TRACK 38 AUDIO
    TITLE "17:cjc029_6723"
    INDEX 01 00:35:59
  TRACK 39 AUDIO
    TITLE "0:"
    INDEX 01 00:37:05
  TRACK 40 AUDIO
    TITLE "16:cjc029_6724"
    INDEX 01 00:37:10
  TRACK 41 AUDIO
    TITLE "0:"
    INDEX 01 00:38:31
  TRACK 42 AUDIO
    TITLE "17:cjc029_6725"
    INDEX 01 00:39:15
  TRACK 43 AUDIO
    TITLE "0:"
    INDEX 01 00:40:26
  TRACK 44 AUDIO
    TITLE "16:cjc029_6726"
    INDEX 01 00:40:30
  TRACK 45 AUDIO
    TITLE "0:"
    INDEX 01 00:42:14
  TRACK 46 AUDIO
    TITLE "17:cjc029_6727"
    INDEX 01 00:42:72
  TRACK 47 AUDIO
    TITLE "0:"
    INDEX 01 00:44:05
  TRACK 48 AUDIO
    TITLE "16:cjc029_6728"
    INDEX 01 00:44:11
  TRACK 49 AUDIO
    TITLE "0:"
    INDEX 01 00:45:61
  TRACK 50 AUDIO
    TITLE "17:cjc029_6729"
    INDEX 01 00:46:49
  TRACK 51 AUDIO
    TITLE "0:"
    INDEX 01 00:49:20
  TRACK 52 AUDIO
    TITLE "16:cjc029_6730"
    INDEX 01 00:49:23
  TRACK 53 AUDIO
    TITLE "0:"
    INDEX 01 00:50:50
  TRACK 54 AUDIO
    TITLE "17:cjc029_6731"
    INDEX 01 00:51:34
  TRACK 55 AUDIO
    TITLE "0:"
    INDEX 01 00:52:51
  TRACK 56 AUDIO
    TITLE "16:cjc029_6732"
    INDEX 01 00:52:63
  TRACK 57 AUDIO
    TITLE "0:"
    INDEX 01 00:54:11
  TRACK 58 AUDIO
    TITLE "17:cjc029_6733"
    INDEX 01 00:54:68
  TRACK 59 AUDIO
    TITLE "0:"
    INDEX 01 00:56:04
  TRACK 60 AUDIO
    TITLE "16:cjc029_6734"
    INDEX 01 00:56:12
  TRACK 61 AUDIO
    TITLE "0:"
    INDEX 01 00:57:23
  TRACK 62 AUDIO
    TITLE "17:cjc029_6735"
    INDEX 01 00:58:07
  TRACK 63 AUDIO
    TITLE "0:"
    INDEX 01 00:58:73
  TRACK 64 AUDIO
    TITLE "16:cjc029_6736"
    INDEX 01 00:59:02
  TRACK 65 AUDIO
    TITLE "0:"
    INDEX 01 01:00:47
  TRACK 66 AUDIO
    TITLE "17:cjc029_6737"
    INDEX 01 01:01:33
  TRACK 67 AUDIO
    TITLE "0:"
    INDEX 01 01:02:38
  TRACK 68 AUDIO
    TITLE "16:cjc029_6738"
    INDEX 01 01:02:44
  TRACK 69 AUDIO
    TITLE "0:"
    INDEX 01 01:04:13
